<svg xmlns="http://www.w3.org/2000/svg" viewBox="0 0 64 64" role="img" aria-labelledby="title desc">
  <title id="title">ShaderBook</title>
  <desc id="desc">A WGSL shader mark with a glowing gradient wave on a dark tile.</desc>
  <defs>
    <linearGradient id="tile" x1="10" x2="54" y1="8" y2="58" gradientUnits="userSpaceOnUse">
      <stop offset="0" stop-color="#171b27"/>
      <stop offset="1" stop-color="#080b12"/>
    </linearGradient>
    <linearGradient id="edge" x1="12" x2="52" y1="10" y2="54" gradientUnits="userSpaceOnUse">
      <stop offset="0" stop-color="#8b5cf6"/>
      <stop offset=".58" stop-color="#22d3ee"/>
      <stop offset="1" stop-color="#34d399"/>
    </linearGradient>
    <linearGradient id="wave" x1="14" x2="50" y1="43" y2="20" gradientUnits="userSpaceOnUse">
      <stop offset="0" stop-color="#8b5cf6"/>
      <stop offset=".52" stop-color="#22d3ee"/>
      <stop offset="1" stop-color="#34d399"/>
    </linearGradient>
  </defs>
  <rect width="64" height="64" rx="14" fill="#0b0d12"/>
  <rect x="5" y="5" width="54" height="54" rx="12" fill="url(#tile)" stroke="url(#edge)" stroke-width="2"/>
  <path d="M15 42c6.5-15 12.5-15 18 0s11.5 15 18 0" fill="none" stroke="#22d3ee" stroke-linecap="round" stroke-opacity=".28" stroke-width="9"/>
  <path d="M15 42c6.5-15 12.5-15 18 0s11.5 15 18 0" fill="none" stroke="url(#wave)" stroke-linecap="round" stroke-width="5"/>
  <path d="M15 24h34M15 32h34M15 40h34M24 15v34M32 15v34M40 15v34" stroke="#f2f5fb" stroke-opacity=".11" stroke-linecap="round" stroke-width="1.4"/>
  <path d="M18 20l6 24 8-17 8 17 6-24" fill="none" stroke="#f2f5fb" stroke-linecap="round" stroke-linejoin="round" stroke-width="5"/>
  <path d="M18 20l6 24 8-17 8 17 6-24" fill="none" stroke="#0b0d12" stroke-linecap="round" stroke-linejoin="round" stroke-width="2"/>
</svg>
